<?xml version="1.0" encoding="UTF-8" standalone="no"?>
<svg
   xmlns:dc="http://purl.org/dc/elements/1.1/"
   xmlns:cc="http://creativecommons.org/ns#"
   xmlns:rdf="http://www.w3.org/1999/02/22-rdf-syntax-ns#"
   xmlns:svg="http://www.w3.org/2000/svg"
   xmlns="http://www.w3.org/2000/svg"
   xmlns:sodipodi="http://sodipodi.sourceforge.net/DTD/sodipodi-0.dtd"
   xmlns:inkscape="http://www.inkscape.org/namespaces/inkscape"
   version="1.1"
   x="0px"
   y="0px"
   viewBox="0 0 100 125"
   enable-background="new 0 0 100 100"
   xml:space="preserve"
   id="svg10"
   sodipodi:docname="noun_Formula 1_1298451.svg"
   inkscape:version="0.92.3 (2405546, 2018-03-11)"><metadata
     id="metadata16"><rdf:RDF><cc:Work
         rdf:about=""><dc:format>image/svg+xml</dc:format><dc:type
           rdf:resource="http://purl.org/dc/dcmitype/StillImage" /></cc:Work></rdf:RDF></metadata><defs
     id="defs14" /><sodipodi:namedview
     pagecolor="#ffffff"
     bordercolor="#666666"
     borderopacity="1"
     objecttolerance="10"
     gridtolerance="10"
     guidetolerance="10"
     inkscape:pageopacity="0"
     inkscape:pageshadow="2"
     inkscape:window-width="708"
     inkscape:window-height="480"
     id="namedview12"
     showgrid="false"
     inkscape:zoom="1.888"
     inkscape:cx="50"
     inkscape:cy="62.5"
     inkscape:window-x="65"
     inkscape:window-y="24"
     inkscape:window-maximized="0"
     inkscape:current-layer="svg10" /><line
     fill="none"
     x1="23.763"
     y1="57.629"
     x2="23.763"
     y2="57.611"
     id="line2" /><path
     fill="#000000"
     d="M93.262,54.015l-4.084-1.175l1.366-1.872l2.555-1.5l-7.778-1.818l-5.27-1.2l-35.305-2.169v-3.575H33.831  L24.81,43.66c0,0-2.197-1.941-5.938-1.944l-0.275-2.194H5l0.061,11.696l4.261,2.938v-1.316c0,0,1.608,7.597,8.364,7.843  c5.378,0.195,6.932-1.916,9.029-3.65h46.758c0,0,1.312,2.19,5.053,2.375c3.737,0.181,5.461-2.92,5.461-2.92L95,56.278L93.262,54.015  z M18.637,57.467c-3.199,0-5.79-2.591-5.79-5.79c0-3.202,2.591-5.794,5.79-5.794c3.202,0,5.794,2.591,5.794,5.794  C24.431,54.876,21.839,57.467,18.637,57.467z M78.696,57.467c-2.685,0-4.858-2.176-4.858-4.858c0-2.682,2.172-4.858,4.858-4.858  c2.682,0,4.858,2.176,4.858,4.858C83.553,55.291,81.378,57.467,78.696,57.467z"
     id="path4" /></svg>