<?xml version="1.0" encoding="UTF-8" standalone="no"?>
<svg
   xmlns:dc="http://purl.org/dc/elements/1.1/"
   xmlns:cc="http://creativecommons.org/ns#"
   xmlns:rdf="http://www.w3.org/1999/02/22-rdf-syntax-ns#"
   xmlns:svg="http://www.w3.org/2000/svg"
   xmlns="http://www.w3.org/2000/svg"
   xmlns:sodipodi="http://sodipodi.sourceforge.net/DTD/sodipodi-0.dtd"
   xmlns:inkscape="http://www.inkscape.org/namespaces/inkscape"
   version="1.1"
   x="0px"
   y="0px"
   viewBox="0 0 110 60.17358"
   enable-background="new 0 0 100 100"
   xml:space="preserve"
   id="svg10"
   sodipodi:docname="formulaone02.svg"
   inkscape:version="0.92.3 (2405546, 2018-03-11)"
   width="110"
   height="60.17358"><metadata
     id="metadata16"><rdf:RDF><cc:Work
         rdf:about=""><dc:format>image/svg+xml</dc:format><dc:type
           rdf:resource="http://purl.org/dc/dcmitype/StillImage" /><dc:title></dc:title></cc:Work></rdf:RDF></metadata><defs
     id="defs14" /><sodipodi:namedview
     pagecolor="#ffffff"
     bordercolor="#666666"
     borderopacity="1"
     objecttolerance="10"
     gridtolerance="10"
     guidetolerance="10"
     inkscape:pageopacity="0"
     inkscape:pageshadow="2"
     inkscape:window-width="1558"
     inkscape:window-height="480"
     id="namedview12"
     showgrid="false"
     inkscape:zoom="1.888"
     inkscape:cx="-107.21134"
     inkscape:cy="-1.8044221"
     inkscape:window-x="65"
     inkscape:window-y="24"
     inkscape:window-maximized="0"
     inkscape:current-layer="svg10"
     fit-margin-top="0"
     fit-margin-left="0"
     fit-margin-right="0"
     fit-margin-bottom="0" /><line
     x1="18.763"
     y1="57.107006"
     x2="18.763"
     y2="57.089001"
     id="line2"
     style="fill:none" /><path
     d="m 98.85522,33.895552 -4.084,-1.175 1.366,-1.872 2.555,-1.5 -7.778,-1.818 -5.27,-1.2 -35.305,-2.169 v -3.575 h -10.915 l -9.021,2.954 c 0,0 -2.197,-1.941 -5.938,-1.944 l -0.275,-2.194 h -13.597 l 0.061,11.696 4.261,2.938 v -1.316 c 0,0 1.608,7.597 8.364,7.843 5.378,0.195 6.932,-1.916 9.029,-3.65 h 46.758 c 0,0 1.312,2.19 5.053,2.375 3.737,0.181 5.461,-2.92 5.461,-2.92 l 11.013,-0.21 z m -74.625,3.452 c -3.199,0 -5.79,-2.591 -5.79,-5.79 0,-3.202 2.591,-5.794 5.79,-5.794 3.202,0 5.794,2.591 5.794,5.794 0,3.199 -2.592,5.79 -5.794,5.79 z m 60.059,0 c -2.685,0 -4.858,-2.176 -4.858,-4.858 0,-2.682 2.172,-4.858 4.858,-4.858 2.682,0 4.858,2.176 4.858,4.858 -0.001,2.682 -2.176,4.858 -4.858,4.858 z"
     id="path4"
     inkscape:connector-curvature="0"
     style="fill:#000000" /></svg>