<?xml version="1.0" encoding="UTF-8" standalone="no"?>
<svg
   xmlns:dc="http://purl.org/dc/elements/1.1/"
   xmlns:cc="http://creativecommons.org/ns#"
   xmlns:rdf="http://www.w3.org/1999/02/22-rdf-syntax-ns#"
   xmlns:svg="http://www.w3.org/2000/svg"
   xmlns="http://www.w3.org/2000/svg"
   xmlns:sodipodi="http://sodipodi.sourceforge.net/DTD/sodipodi-0.dtd"
   xmlns:inkscape="http://www.inkscape.org/namespaces/inkscape"
   data-name="Layer 1"
   viewBox="0 0 100 125"
   x="0px"
   y="0px"
   version="1.1"
   id="svg14"
   sodipodi:docname="learning01.svg"
   inkscape:version="0.92.3 (2405546, 2018-03-11)">
  <metadata
     id="metadata20">
    <rdf:RDF>
      <cc:Work
         rdf:about="">
        <dc:format>image/svg+xml</dc:format>
        <dc:type
           rdf:resource="http://purl.org/dc/dcmitype/StillImage" />
      </cc:Work>
    </rdf:RDF>
  </metadata>
  <defs
     id="defs18" />
  <sodipodi:namedview
     pagecolor="#ffffff"
     bordercolor="#666666"
     borderopacity="1"
     objecttolerance="10"
     gridtolerance="10"
     guidetolerance="10"
     inkscape:pageopacity="0"
     inkscape:pageshadow="2"
     inkscape:window-width="708"
     inkscape:window-height="480"
     id="namedview16"
     showgrid="false"
     inkscape:zoom="1.888"
     inkscape:cx="50"
     inkscape:cy="62.5"
     inkscape:window-x="65"
     inkscape:window-y="24"
     inkscape:window-maximized="0"
     inkscape:current-layer="svg14" />
  <title
     id="title2">105all</title>
  <path
     d="M85.3,64.9a2,2,0,0,0,.16-1.78L76,38.89c-.22-15.78-14.24-29-30.81-29C32.26,9.85,20,18.12,16,29.53,13.3,35.48,14.6,46.37,15.74,56c.37,3.13.73,6.09.89,8.54a61,61,0,0,1-.13,9.9L14.89,91.35l4,.38,1.61-16.94a65.15,65.15,0,0,0,.14-10.55c-.17-2.55-.53-5.56-.91-8.74-1-8.68-2.32-19.48,0-24.37a1.91,1.91,0,0,0,.08-.19C23.19,21,33.88,13.85,45.17,13.85,59.7,13.85,72,25.49,72,39.27a2,2,0,0,0,.14.73l8.65,22.11-7.05.67a2,2,0,0,0-1.77,1.59l-2.88,14L57,77.55a2,2,0,0,0-2.13,2.07l.46,12.46,4-.15-.38-10.24,11.63.77a2,2,0,0,0,2.09-1.59l2.93-14.24,8.22-.78A2,2,0,0,0,85.3,64.9Z"
     id="path4" />
  <path
     d="M41.72,31.38l-.1,0a1.41,1.41,0,0,0-1.09,1.36s0,0,0,0l.09,4.83a1.35,1.35,0,0,0,.39,1A1.41,1.41,0,0,0,42,39l2.61.19c.14.28.28.52.45.79s.33.54.52.79l-.89,2.53a1.41,1.41,0,0,0,0,1,1.35,1.35,0,0,0,.7.79l4.21,2.25a1.36,1.36,0,0,0,1.8-.31l0-.07,1.48-2.17a8.34,8.34,0,0,0,1.79,0l1.54,2.08A1.38,1.38,0,0,0,58,47.3l4.11-2.52A1.38,1.38,0,0,0,62.56,43L61.4,40.64a9.35,9.35,0,0,0,.86-1.56l2.59-.33h.08A1.4,1.4,0,0,0,66,37.38s0,0,0,0l-.09-4.83a1.35,1.35,0,0,0-.39-1,1.41,1.41,0,0,0-1-.42L62,30.92c-.14-.28-.28-.52-.45-.79s-.32-.52-.5-.76l1-2.43a1.39,1.39,0,0,0,0-1,1.35,1.35,0,0,0-.7-.8L57.2,22.87a1.24,1.24,0,0,0-1-.18,1.49,1.49,0,0,0-.8.49l0,.06-1.48,2.17a8.15,8.15,0,0,0-1.8,0l-1.65-2.12a1.38,1.38,0,0,0-1.81-.4l-4.11,2.52A1.38,1.38,0,0,0,44,27.24l1.16,2.34a9.37,9.37,0,0,0-.85,1.54Zm8.62-1.1a5.52,5.52,0,1,1-1.83,7.6A5.47,5.47,0,0,1,50.34,30.28Z"
     id="path6" />
  <path
     d="M23.79,47.35l-.07,0a1.1,1.1,0,0,0-.37,1.32v0l1.57,3.46a1.06,1.06,0,0,0,.59.59,1.11,1.11,0,0,0,.82,0l1.94-.68c.18.16.37.29.57.43s.41.29.62.41l.14,2.1a1.11,1.11,0,0,0,.28.74,1.06,1.06,0,0,0,.75.36l3.74.32a1.07,1.07,0,0,0,1.21-.78l0-.06.39-2A6.55,6.55,0,0,0,37.29,53l1.76,1a1.08,1.08,0,0,0,1.44-.27l2.19-3.1a1.08,1.08,0,0,0-.23-1.45l-1.57-1.33A7.35,7.35,0,0,0,41,46.52l1.77-1,.05,0a1.1,1.1,0,0,0,.37-1.32v0l-1.57-3.46A1.06,1.06,0,0,0,41,40a1.11,1.11,0,0,0-.82,0l-1.94.68c-.18-.16-.37-.29-.57-.43s-.39-.28-.6-.4V37.81a1.1,1.1,0,0,0-.28-.75,1.06,1.06,0,0,0-.75-.36l-3.74-.32a1,1,0,0,0-.78.18,1.17,1.17,0,0,0-.42.6l0,.06-.39,2a6.41,6.41,0,0,0-1.29.57l-1.85-1a1.08,1.08,0,0,0-1.43.28l-2.19,3.09a1.08,1.08,0,0,0,.23,1.45L25.74,45a7.37,7.37,0,0,0-.13,1.38Zm5.77-3.55A4.47,4.47,0,1,1,30.64,50,4.43,4.43,0,0,1,29.57,43.79Z"
     id="path8" />
</svg>
